<?xml version="1.0" encoding="utf-8"?>
<!-- Generator: Adobe Illustrator 26.0.0, SVG Export Plug-In . SVG Version: 6.00 Build 0)  -->
<svg version="1.1" id="Calque_1" xmlns="http://www.w3.org/2000/svg" xmlns:xlink="http://www.w3.org/1999/xlink" x="0px" y="0px"
	 viewBox="0 0 700 50" style="enable-background:new 0 0 700 50;" xml:space="preserve">
<style type="text/css">
	.st0{fill:#6D84A4;}
</style>
<g>
	
		<rect x="365.9" y="20.8" transform="matrix(0.7071 -0.7071 0.7071 0.7071 90.7291 269.0211)" class="st0" width="8.4" height="8.4"/>
	
		<rect x="384.8" y="18.6" transform="matrix(0.7071 -0.7071 0.7071 0.7071 96.9099 283.9258)" class="st0" width="12.8" height="12.8"/>
	
		<rect x="410" y="20.8" transform="matrix(0.7071 -0.7071 0.7071 0.7071 103.6533 300.2011)" class="st0" width="8.4" height="8.4"/>
	<rect x="430.8" y="18.6" transform="matrix(0.759 -0.651 0.651 0.759 89.053 290.6386)" class="st0" width="12.8" height="12.8"/>
	
		<rect x="302.8" y="20.8" transform="matrix(0.7071 -0.7071 0.7071 0.7071 72.2218 224.4196)" class="st0" width="8.4" height="8.4"/>
	
		<rect x="277.6" y="18.6" transform="matrix(0.7071 -0.7071 0.7071 0.7071 65.4906 208.151)" class="st0" width="12.8" height="12.8"/>
	<rect x="256.8" y="20.8" transform="matrix(0.7072 -0.707 0.707 0.7072 58.736 191.8473)" class="st0" width="8.4" height="8.4"/>
	
		<rect x="231.6" y="18.6" transform="matrix(0.759 -0.6511 0.6511 0.759 41.0924 160.986)" class="st0" width="12.8" height="12.8"/>
	
		<rect x="326.1" y="12.1" transform="matrix(0.7071 -0.7071 0.7071 0.7071 81.6044 246.9643)" class="st0" width="25.7" height="25.7"/>
	<polygon class="st0" points="440.4,21.1 698.1,24.2 698.1,25.8 440.4,28.9 	"/>
	<polygon class="st0" points="234.6,28.9 1.9,25.8 1.9,24.2 234.6,21.1 	"/>
</g>
</svg>
