<?xml version="1.0" encoding="utf-8"?>
<!-- Generator: Adobe Illustrator 26.0.0, SVG Export Plug-In . SVG Version: 6.00 Build 0)  -->
<svg version="1.1" id="Calque_1" xmlns="http://www.w3.org/2000/svg" xmlns:xlink="http://www.w3.org/1999/xlink" x="0px" y="0px"
	 viewBox="0 0 700 50" style="enable-background:new 0 0 700 50;" xml:space="preserve">
<style type="text/css">
	.st0{fill:#D6CB98;}
</style>
<g>
	
		<rect x="365.9" y="20.8" transform="matrix(0.7071 -0.7071 0.7071 0.7071 90.7265 269.011)" class="st0" width="8.4" height="8.4"/>
	
		<rect x="384.8" y="18.6" transform="matrix(0.7071 -0.7071 0.7071 0.7071 96.8887 283.9223)" class="st0" width="12.8" height="12.8"/>
	
		<rect x="410" y="20.8" transform="matrix(0.7071 -0.7071 0.7071 0.7071 103.6431 300.1833)" class="st0" width="8.4" height="8.4"/>
	<rect x="430.8" y="18.6" transform="matrix(0.759 -0.651 0.651 0.759 89.0559 290.6551)" class="st0" width="12.8" height="12.8"/>
	
		<rect x="302.8" y="20.8" transform="matrix(0.7071 -0.7071 0.7071 0.7071 72.2522 224.4326)" class="st0" width="8.4" height="8.4"/>
	
		<rect x="277.6" y="18.6" transform="matrix(0.7071 -0.7071 0.7071 0.7071 65.5119 208.1602)" class="st0" width="12.8" height="12.8"/>
	<rect x="256.8" y="20.8" transform="matrix(0.7072 -0.707 0.707 0.7072 58.7403 191.8559)" class="st0" width="8.4" height="8.4"/>
	
		<rect x="231.6" y="18.6" transform="matrix(0.759 -0.6511 0.6511 0.759 41.0859 160.9724)" class="st0" width="12.8" height="12.8"/>
	
		<rect x="326.1" y="12.1" transform="matrix(0.7071 -0.7071 0.7071 0.7071 81.6008 247.0063)" class="st0" width="25.7" height="25.7"/>
	<polygon class="st0" points="440.4,21.1 698.1,24.2 698.1,25.8 440.4,28.9 	"/>
	<polygon class="st0" points="234.6,28.9 1.9,25.8 1.9,24.2 234.6,21.1 	"/>
</g>
</svg>
